<?xml version="1.0" encoding="utf-8"?>
<!-- Generator: Adobe Illustrator 19.2.0, SVG Export Plug-In . SVG Version: 6.00 Build 0)  -->
<svg version="1.1"
	 id="svg3176" inkscape:version="0.48.2 r9819" sodipodi:docname="New document 5" xmlns:cc="http://creativecommons.org/ns#" xmlns:dc="http://purl.org/dc/elements/1.1/" xmlns:inkscape="http://www.inkscape.org/namespaces/inkscape" xmlns:rdf="http://www.w3.org/1999/02/22-rdf-syntax-ns#" xmlns:sodipodi="http://sodipodi.sourceforge.net/DTD/sodipodi-0.dtd" xmlns:svg="http://www.w3.org/2000/svg"
	 xmlns="http://www.w3.org/2000/svg" xmlns:xlink="http://www.w3.org/1999/xlink" x="0px" y="0px" viewBox="0 0 312.1 312.1"
	 style="enable-background:new 0 0 312.1 312.1;" xml:space="preserve">
<style type="text/css">
	.st0{fill:#FFFFFF;}
	.st1{fill:#7A9F3F;stroke:#008080;stroke-width:0.25;}
	.st2{fill:#82A73E;stroke:#000080;stroke-width:0.25;}
	.st3{fill:#81A83E;stroke:#000000;stroke-width:0.25;}
	.st4{fill:url(#path3101_1_);}
</style>
<sodipodi:namedview  bordercolor="#666666" borderopacity="1.0" fit-margin-bottom="0.5" fit-margin-left="0.5" fit-margin-right="0.5" fit-margin-top="0.5" id="base" inkscape:current-layer="layer1" inkscape:cx="1802.1504" inkscape:cy="671.66674" inkscape:document-units="px" inkscape:pageopacity="0.0" inkscape:pageshadow="2" inkscape:window-height="1036" inkscape:window-maximized="0" inkscape:window-width="1511" inkscape:window-x="403" inkscape:window-y="-21" inkscape:zoom="0.35" pagecolor="#ffffff" showgrid="false">
	</sodipodi:namedview>
<rect x="32.1" y="76.2" class="st0" width="243" height="162.4"/>
<g id="layer1" transform="translate(1427.1504,-891.92887)" inkscape:groupmode="layer" inkscape:label="Layer 1">
	<g id="g3128" transform="matrix(0.37570303,0,0,0.37570303,-1141.6023,902.42898)">
		<g id="g3099" transform="matrix(0.55912573,0,0,0.55912573,-580.3448,-883.96648)">
			<path id="path3103" inkscape:connector-curvature="0" sodipodi:nodetypes="cccccccccccc" class="st1" d="M-31.1,2470.9l2.5,24.5
				l18.9,8.7c1.1-29,19.1-46.6,42.9-50.8c75.4-16.4,168.1-32.1,276.2-32.1c169.9,0,316.4,42.1,435,114.4
				c17.5,10.6,23.2,23.9,25.7,41.5l65.9-42.6l-16.7-65.6L327.7,2337l-459.7,58.6L-31.1,2470.9z"/>
			<path id="path3105" inkscape:connector-curvature="0" sodipodi:nodetypes="cccccccccc" class="st2" d="M-62.1,2288l22.3-8.4
				c0.8-28,15.9-51.2,48.1-60c83.5-24.5,181.6-39.9,288.7-39.9c205.5,0,393.8,53.8,531.4,136.8c22,13.5,30.5,23.5,34.6,58.9
				l101.2-55.6l-425-198.8l-710.5,41.5L-62.1,2288z"/>
			<path id="path3107" inkscape:connector-curvature="0" sodipodi:nodetypes="ccccccccc" class="st3" d="M-90.1,2052
				c-2.3-41.8,19.7-71.9,51.8-81.1c105.6-30.7,218.9-45.7,352.8-45.7c222.7,0,446.4,46.6,610,141.1c32.2,17.5,41.5,41,43.2,76.9
				l101.6-67l-304.8-257.7l-932.9,99.9L-90.1,2052z"/>
			
				<radialGradient id="path3101_1_" cx="3271.8711" cy="-10420.3525" r="740.5" gradientTransform="matrix(0 0.3393 0.2827 0 3380.6189 715.8281)" gradientUnits="userSpaceOnUse">
				<stop  offset="0" style="stop-color:#A9D03F"/>
				<stop  offset="7.105015e-02" style="stop-color:#A9D03F"/>
				<stop  offset="0.2468" style="stop-color:#A1CC3E"/>
				<stop  offset="0.4557" style="stop-color:#94C93D"/>
				<stop  offset="0.5966" style="stop-color:#8DC540"/>
				<stop  offset="0.7966" style="stop-color:#84BC41"/>
				<stop  offset="1" style="stop-color:#79B641"/>
			</radialGradient>
			<path id="path3101" inkscape:connector-curvature="0" class="st4" d="M422.7,1533.4c-409,0-740.5,331.5-740.5,740.5
				s331.5,740.5,740.5,740.5s740.5-331.5,740.5-740.5S831.6,1533.4,422.7,1533.4z M314,1919.8c217.4,0,446.2,44.7,613.3,142.9
				c22.5,12.8,38.2,32,38.2,67.2c0,40.4-32.4,69.4-69.8,69.4c-15.1,0-24-3.7-38.2-11.4c-134-80.4-342-124.6-543.2-124.6
				c-100.4,0-202.4,10.2-295.8,35.6c-10.8,2.7-24.4,8.1-38,8.1c-39.5,0-69.8-31.3-69.8-70.7c0-40.2,24.9-62.8,51.8-70.8
				C68.1,1934.3,185.9,1919.8,314,1919.8z M298.9,2174.3c193.8,0,381.3,48.3,528.7,136.5c24.7,14.2,33.8,32.2,33.8,58.5
				c0,32.1-25.5,58-57.7,58c-16.1,0-26.2-6.5-37.1-12.8c-120.5-71.5-287.4-119-470.2-119c-93.8,0-174.7,13.1-241.7,31
				c-14.4,4-22.5,8.2-36,8.2c-31.8,0-57.8-26-57.8-58.1c0-31.5,15.3-53.2,46.1-61.8C90.2,2191.9,175.2,2174.3,298.9,2174.3z
				 M309.1,2416.1c162,0,306.5,37.2,430.7,111.7c18.5,10.8,29.3,21.8,29.3,49.2c0,26.7-21.7,46.3-46.1,46.3c-12,0-20.1-4.2-31.3-11
				c-107.3-64.9-241.1-99.1-383.2-99.1c-79.2,0-159,10.2-233.6,25.7c-12.1,2.6-27.4,7.3-36.5,7.3c-28.1,0-46.9-22.3-46.9-46.5
				c0-31.1,18-46.6,40.3-50.9C123.4,2428,214.5,2416.1,309.1,2416.1z"/>
		</g>
	</g>
</g>
</svg>
