<?xml version="1.0" encoding="utf-8"?>
<!-- Generator: Adobe Illustrator 19.2.0, SVG Export Plug-In . SVG Version: 6.00 Build 0)  -->
<svg version="1.1" id="Laag_1" xmlns="http://www.w3.org/2000/svg" xmlns:xlink="http://www.w3.org/1999/xlink" x="0px" y="0px"
	 viewBox="0 0 25.3 26" style="enable-background:new 0 0 25.3 26;" xml:space="preserve">
<style type="text/css">
	.st0{fill:#FF6255;}
	.st1{fill:#FFFFFF;}
</style>
<g>
	<path class="st0" d="M25.3,13c0,4-1,7.5-3.1,9.6c-2.1,2.2-5.5,3.1-9.5,3.2c-4,0-7.4-1-9.5-3.2C1,20.5,0,17,0,13c0-4,1-7.5,3.1-9.6
		c2.1-2.2,5.5-3.1,9.5-3.2c4,0,7.4,1,9.5,3.2C24.4,5.5,25.3,9,25.3,13z"/>
	<g>
		<path class="st1" d="M13.7,13C13.7,13,13.7,13,13.7,13c-2-2.2-4-4.3-5.9-6.4C7.1,7.2,6.9,7.3,6.2,7.9c0,0,1.7,2.9,2.6,4.3
			c0.2,0.3,0.3,0.6,0.4,0.8c0,0.3-0.1,0.5-0.4,0.8c-0.9,1.4-2.6,4.3-2.6,4.3c0.7,0.5,0.8,0.7,1.6,1.2C9.8,17.3,11.7,15.2,13.7,13
			C13.7,13,13.7,13,13.7,13"/>
		<path class="st1" d="M20.7,13L20.7,13c-2.2-2.3-3.8-4.1-5.9-6.4c-0.7,0.6-0.9,0.7-1.6,1.2c0,0,1.7,2.9,2.6,4.3
			c0.2,0.3,0.3,0.6,0.4,0.8c0,0.3-0.1,0.5-0.4,0.8c-0.9,1.4-2.6,4.3-2.6,4.3c0.7,0.5,0.8,0.7,1.6,1.2C16.7,17.3,18.7,15.2,20.7,13
			L20.7,13"/>
	</g>
</g>
</svg>
