<?xml version="1.0" encoding="utf-8"?>
<!-- Generator: Adobe Illustrator 19.2.0, SVG Export Plug-In . SVG Version: 6.00 Build 0)  -->
<svg version="1.1" id="Laag_1" xmlns="http://www.w3.org/2000/svg" xmlns:xlink="http://www.w3.org/1999/xlink" x="0px" y="0px"
	 viewBox="0 0 512 512" style="enable-background:new 0 0 512 512;" xml:space="preserve">
<style type="text/css">
	.st0{fill:#FF6600;}
	.st1{fill:#FFFFFF;}
</style>
<g>
	<path class="st0" d="M512,256c0,141.4-114.6,256-256,256C114.6,512,0,397.4,0,256C0,114.6,114.6,0,256,0C397.4,0,512,114.6,512,256
		"/>
	<g>
		<path class="st1" d="M187.8,207.9c0-6.5,0.8-12.2,2.5-17.2c1.6-5,4.3-9.3,8-12.7c3.7-3.4,8.3-6,14.1-7.8
			c5.7-1.8,12.7-2.7,20.9-2.7c8.2,0,15.1,0.9,20.9,2.7c5.7,1.8,10.5,4.4,14.1,7.8c3.7,3.4,6.3,7.6,8,12.7c1.7,5,2.5,10.8,2.5,17.2
			c0,6.5-0.8,12.3-2.5,17.4c-1.6,5-4.3,9.3-8,12.7c-3.7,3.4-8.4,6-14.1,7.8c-5.8,1.8-12.7,2.7-20.9,2.7c-8.2,0-15.2-0.9-20.9-2.7
			c-5.7-1.8-10.4-4.4-14.1-7.8c-3.7-3.4-6.3-7.6-8-12.7C188.6,220.2,187.8,214.4,187.8,207.9 M254.4,208.5c0-3.3-0.3-6.3-1-9.1
			c-0.6-2.7-1.8-5-3.4-7c-1.6-1.9-3.8-3.4-6.5-4.5c-2.7-1.1-6.2-1.6-10.3-1.6c-4.2,0-7.6,0.5-10.3,1.6c-2.8,1.1-4.9,2.6-6.5,4.5
			c-1.6,1.9-2.7,4.2-3.3,7c-0.6,2.7-0.9,5.7-0.9,9.1c0,3.3,0.3,6.3,0.9,9.1c0.6,2.7,1.7,5.1,3.3,7c1.6,2,3.8,3.5,6.5,4.6
			c2.7,1.1,6.2,1.7,10.3,1.7c4.2,0,7.6-0.6,10.3-1.7c2.7-1.1,4.9-2.6,6.5-4.6c1.6-2,2.7-4.3,3.4-7
			C254.1,214.8,254.4,211.8,254.4,208.5"/>
		<path class="st1" d="M286.6,207.9c0-6.5,0.8-12.2,2.5-17.2c1.6-5,4.3-9.3,8-12.7c3.7-3.4,8.4-6,14.1-7.8
			c5.7-1.8,12.7-2.7,20.9-2.7c8.1,0,15.1,0.9,20.9,2.7c5.7,1.8,10.5,4.4,14.1,7.8c3.7,3.4,6.3,7.6,8,12.7c1.7,5,2.5,10.8,2.5,17.2
			c0,6.5-0.8,12.3-2.5,17.4c-1.6,5-4.3,9.3-8,12.7c-3.7,3.4-8.4,6-14.1,7.8c-5.8,1.8-12.7,2.7-20.9,2.7c-8.2,0-15.2-0.9-20.9-2.7
			c-5.7-1.8-10.4-4.4-14.1-7.8c-3.6-3.4-6.3-7.6-8-12.7C287.4,220.2,286.6,214.4,286.6,207.9 M353.2,208.5c0-3.3-0.3-6.3-1-9.1
			c-0.7-2.7-1.8-5-3.4-7c-1.6-1.9-3.8-3.4-6.5-4.5c-2.7-1.1-6.2-1.6-10.3-1.6c-4.1,0-7.6,0.5-10.3,1.6c-2.7,1.1-4.9,2.6-6.5,4.5
			c-1.6,1.9-2.8,4.2-3.4,7c-0.6,2.7-0.9,5.7-0.9,9.1c0,3.3,0.3,6.3,0.9,9.1c0.6,2.7,1.7,5.1,3.4,7c1.6,2,3.8,3.5,6.5,4.6
			c2.7,1.1,6.2,1.7,10.3,1.7c4.2,0,7.6-0.6,10.3-1.7c2.7-1.1,4.9-2.6,6.5-4.6c1.6-2,2.7-4.3,3.4-7
			C352.9,214.8,353.2,211.8,353.2,208.5"/>
		<path class="st1" d="M413.9,228c0.7,0.7,1.1,1.4,1.1,2.3v14.4c0,1-0.4,1.8-1.1,2.5c-0.7,0.7-1.6,1-2.7,1h-6.5h-0.1h-15
			c-1.2,0-2.2-0.4-3.1-1.1c-0.8-0.8-1.3-1.7-1.3-2.8v-8.1v-0.1v-86.3v-3.8c0-0.9,0.3-1.7,1.1-2.4c0.7-0.7,1.6-1,2.7-1h16.2
			c1.1,0,2,0.3,2.7,1c0.7,0.7,1.1,1.5,1.1,2.4V157v62.9c0,5.8,0,4.9,0,7h2h0.2C412.3,227,413.2,227.3,413.9,228"/>
		<path class="st1" d="M235.8,347.5c0.8,0.7,1.1,1.5,1.1,2.5v15c0,1-0.4,1.9-1.1,2.7c-0.8,0.7-1.7,1.1-2.8,1.1h-6.8h-0.1h-15.7
			c-1.3,0-2.3-0.4-3.2-1.2c-0.9-0.8-1.3-1.8-1.3-2.9v-8.4v-0.1v-90.3v-4c0-1,0.4-1.8,1.1-2.5c0.8-0.7,1.7-1.1,2.8-1.1h17
			c1.1,0,2.1,0.4,2.8,1.1c0.7,0.7,1.1,1.6,1.1,2.5v3.3V339c0,6.1,0,5.1,0,7.3h2.1h0.2C234.1,346.5,235.1,346.9,235.8,347.5"/>
		<path class="st1" d="M181.8,231.7l-6.2-8.1c-0.6-0.9-1.4-1.4-2.4-1.5c-0.9-0.1-1.9,0.2-2.8,1c-1.7,1.1-7.9,7.1-24.6,7.1
			c-12.2,0-26.6-6.5-26.6-22.2c0-15.4,15.3-22.2,26.6-22.2c15.7,0,22.9,5.9,24.6,7.1c1,0.7,1.9,1,2.8,1c0.9-0.1,1.7-0.6,2.4-1.5
			l6.2-8.1c1.1-1.3,1.1-1.3,1.5-1.9c2.3-2.9-2.1-5.7-2.3-5.8c-2.9-2-4.5-2.8-6.9-4.1c-2.5-1.3-5.1-2.3-7.8-3c-2.8-0.8-5.8-1.3-9-1.7
			c-3.2-0.3-7-0.5-11.4-0.5c-9.7,0-17.7,1.1-23.8,3.4c-6.1,2.3-25.9,11.5-25.9,36.3c0,25.8,19.8,35.8,25.9,38
			c6.1,2.3,14,3.4,23.8,3.4c4.4,0,8.2-0.2,11.4-0.5c3.3-0.3,6.3-0.9,9-1.7c2.7-0.8,5.4-1.8,7.8-3c2.5-1.3,4.1-2.1,6.9-4.1
			c0.2-0.1,4.5-2.9,2.3-5.8C182.9,233,182.9,233,181.8,231.7"/>
		<path class="st1" d="M101.5,365.5c0,1,0.4,1.9,1.2,2.6c0.8,0.7,1.8,1,2.9,1c0,0,19.3-0.1,20-0.3c0.7-0.1,1.1-0.7,1.1-1.7l0.2-2.5
			c3.2,1.2,6.8,2.3,10.8,3.2c4.1,0.9,8.7,1.4,13.8,1.4c8.5,0,15.7-0.9,21.7-2.8c6-1.8,10.8-4.5,14.6-8c3.8-3.5,6.5-7.9,8.2-13.1
			c1.7-5.2,2.5-11.3,2.5-18.1c0-6.8-0.9-12.8-2.6-18.1c-1.7-5.2-4.5-9.7-8.3-13.3c-3.8-3.6-8.7-6.3-14.7-8.1
			c-6-1.8-13.3-2.8-21.8-2.8c-5,0-9.5,0.3-13.5,1c-4,0.6-7.5,1.6-10.6,2.8v-17.4v-0.1v-8.4c0-0.1,0-0.2,0-0.3v-0.3
			c-0.1-1-0.5-1.8-1.3-2.5c-0.8-0.7-1.7-1-2.8-1h-0.4h-16.8c-1.1,0-2,0.4-2.8,1.1c-0.8,0.7-1.1,1.6-1.1,2.6L101.5,365.5z
			 M172.1,337.2c-0.7,2.8-1.8,5.1-3.5,7.1c-1.7,1.9-3.9,3.5-6.8,4.5c-2.8,1-6.4,1.6-10.8,1.6c-4.3,0-7.9-0.5-10.7-1.6
			c-2.8-1-5.1-2.6-6.8-4.5c-1.7-2-2.8-4.3-3.5-7.1c-0.7-2.8-1-5.9-1-9.3c0-3.4,0.3-6.6,1-9.4c0.7-2.8,1.9-5.3,3.5-7.3
			c1.7-2,3.9-3.6,6.8-4.8c2.8-1.1,6.4-1.7,10.7-1.7c4.4,0,7.9,0.6,10.8,1.7c2.8,1.1,5.1,2.7,6.8,4.8c1.7,2,2.9,4.5,3.5,7.3
			c0.7,2.8,1,6,1,9.4C173.1,331.3,172.7,334.4,172.1,337.2"/>
		<path class="st1" d="M321.4,286.1c0.8,0.7,1.2,1.5,1.2,2.5v2.4v12.1v25.2c0,7.1-0.6,13.2-1.7,18.3c-1.1,5.1-3.1,9.3-6.1,12.6
			c-2.9,3.2-6.9,5.6-12.1,7.1c-5.1,1.5-11.6,2.3-19.6,2.3c-7.9,0-14.5-0.8-19.6-2.3c-5.2-1.5-9.3-3.9-12.2-7.1
			c-3-3.3-5-7.4-6.2-12.5c-1.2-5.1-1.7-11.2-1.7-18.3v-25.3v-8.9v-5.7c0-1,0.4-1.8,1.1-2.5c0.8-0.7,1.7-1.1,2.8-1.1h2.3h11.2h1.7
			c1.1,0,2.1,0.4,2.9,1.1c0.8,0.7,1.2,1.5,1.2,2.5v14.5V329c0,2.9,0,5.5,0.2,8c0.2,2.4,0.8,4.5,1.9,6.2c1.1,1.7,2.8,3.1,5,4
			c2.3,1,5.5,1.4,9.5,1.4c4.1,0,7.2-0.5,9.5-1.4c2.2-1,3.9-2.3,5-4.1c1.1-1.8,1.7-3.9,1.9-6.3c0.2-2.4,0.3-5.1,0.3-8v-25.7v-14.5
			c0-1,0.4-1.8,1.1-2.5c0.8-0.7,1.7-1.1,2.8-1.1h2h7.1h5.5C319.8,285,320.7,285.4,321.4,286.1"/>
		<path class="st1" d="M353.9,318.9c0.3-2.5,0.9-4.7,1.7-6.7c0.9-2,2.1-3.6,3.8-5c1.7-1.4,3.8-2.4,6.4-3.2c2.5-0.8,5.7-1.2,9.6-1.2
			c3.8,0,6.9,0.4,9.2,1.2c2.3,0.8,4,1.9,5.3,3.3c1.2,1.4,2.1,3.1,2.6,5c0.5,2,0.8,4.1,0.9,6.4h-24.9c-2,0-2.1,2-2.1,2v12.2
			c0,0,0,1.8,2.1,1.8h47.4c0.1-4.5,0.1-8.8,0-13c-0.1-4.2-0.5-8.2-1.2-11.9c-0.8-3.7-2-7.1-3.6-10.1c-1.6-3.1-3.9-5.7-6.9-7.9
			c-3-2.2-6.7-3.9-11.3-5.1c-4.6-1.2-10.1-1.8-16.6-1.8c-9.5,0-17.3,1.1-23.3,3.4c-6,2.3-10.7,5.3-14.1,9.2c-3.4,3.8-5.7,8.3-7,13.4
			c-1.3,5.1-1.9,10.4-1.9,16c0,5.8,0.6,11.2,1.9,16.3c1.2,5.1,3.5,9.5,6.9,13.4c3.4,3.8,8.1,6.9,14.1,9.1c6,2.2,13.9,3.4,23.5,3.4
			c4.3,0,8.1-0.2,11.3-0.5c3.2-0.3,6.2-0.9,8.9-1.6c2.7-0.8,5.3-1.8,7.7-3c2.4-1.3,4-2.1,6.8-4c0.2-0.1,4.5-2.9,2.2-5.7
			c-0.4-0.5-0.4-0.5-1.5-1.8l-6.1-8c-0.6-0.9-1.4-1.4-2.3-1.4c-0.9-0.1-1.9,0.2-2.8,1c-1.7,1.1-3.3,2.1-4.7,2.9
			c-1.5,0.8-3.1,1.6-4.8,2.2c-1.8,0.6-3.8,1.1-6.1,1.4c-2.3,0.3-5.2,0.5-8.7,0.5c-4,0-7.3-0.4-10-1.1c-2.7-0.8-4.9-1.9-6.6-3.3
			c-1.7-1.4-3-3.2-4-5.2c-0.9-2-1.6-4.2-1.9-6.6C352.9,327.7,353.9,318.9,353.9,318.9"/>
		<path class="st1" d="M286.6,207.9c0-6.5,0.8-12.2,2.5-17.2c1.6-5,4.3-9.3,8-12.7c3.7-3.4,8.4-6,14.1-7.8
			c5.7-1.8,12.7-2.7,20.9-2.7c8.1,0,15.1,0.9,20.9,2.7c5.7,1.8,10.5,4.4,14.1,7.8c3.7,3.4,6.3,7.6,8,12.7c1.7,5,2.5,10.8,2.5,17.2
			c0,6.5-0.8,12.3-2.5,17.4c-1.6,5-4.3,9.3-8,12.7c-3.7,3.4-8.4,6-14.1,7.8c-5.8,1.8-12.7,2.7-20.9,2.7c-8.2,0-15.2-0.9-20.9-2.7
			c-5.7-1.8-10.4-4.4-14.1-7.8c-3.6-3.4-6.3-7.6-8-12.7C287.4,220.2,286.6,214.4,286.6,207.9 M353.2,208.5c0-3.3-0.3-6.3-1-9.1
			c-0.7-2.7-1.8-5-3.4-7c-1.6-1.9-3.8-3.4-6.5-4.5c-2.7-1.1-6.2-1.6-10.3-1.6c-4.1,0-7.6,0.5-10.3,1.6c-2.7,1.1-4.9,2.6-6.5,4.5
			c-1.6,1.9-2.8,4.2-3.4,7c-0.6,2.7-0.9,5.7-0.9,9.1c0,3.3,0.3,6.3,0.9,9.1c0.6,2.7,1.7,5.1,3.4,7c1.6,2,3.8,3.5,6.5,4.6
			c2.7,1.1,6.2,1.7,10.3,1.7c4.2,0,7.6-0.6,10.3-1.7c2.7-1.1,4.9-2.6,6.5-4.6c1.6-2,2.7-4.3,3.4-7
			C352.9,214.8,353.2,211.8,353.2,208.5"/>
		<path class="st1" d="M353.9,318.9c0.3-2.5,0.9-4.7,1.7-6.7c0.9-2,2.1-3.6,3.8-5c1.7-1.4,3.8-2.4,6.4-3.2c2.5-0.8,5.7-1.2,9.6-1.2
			c3.8,0,6.9,0.4,9.2,1.2c2.3,0.8,4,1.9,5.3,3.3c1.2,1.4,2.1,3.1,2.6,5c0.5,2,0.8,4.1,0.9,6.4h-24.9c-2,0-2.1,2-2.1,2v12.2
			c0,0,0,1.8,2.1,1.8h47.4c0.1-4.5,0.1-8.8,0-13c-0.1-4.2-0.5-8.2-1.2-11.9c-0.8-3.7-2-7.1-3.6-10.1c-1.6-3.1-3.9-5.7-6.9-7.9
			c-3-2.2-6.7-3.9-11.3-5.1c-4.6-1.2-10.1-1.8-16.6-1.8c-9.5,0-17.3,1.1-23.3,3.4c-6,2.3-10.7,5.3-14.1,9.2c-3.4,3.8-5.7,8.3-7,13.4
			c-1.3,5.1-1.9,10.4-1.9,16c0,5.8,0.6,11.2,1.9,16.3c1.2,5.1,3.5,9.5,6.9,13.4c3.4,3.8,8.1,6.9,14.1,9.1c6,2.2,13.9,3.4,23.5,3.4
			c4.3,0,8.1-0.2,11.3-0.5c3.2-0.3,6.2-0.9,8.9-1.6c2.7-0.8,5.3-1.8,7.7-3c2.4-1.3,4-2.1,6.8-4c0.2-0.1,4.5-2.9,2.2-5.7
			c-0.4-0.5-0.4-0.5-1.5-1.8l-6.1-8c-0.6-0.9-1.4-1.4-2.3-1.4c-0.9-0.1-1.9,0.2-2.8,1c-1.7,1.1-3.3,2.1-4.7,2.9
			c-1.5,0.8-3.1,1.6-4.8,2.2c-1.8,0.6-3.8,1.1-6.1,1.4c-2.3,0.3-5.2,0.5-8.7,0.5c-4,0-7.3-0.4-10-1.1c-2.7-0.8-4.9-1.9-6.6-3.3
			c-1.7-1.4-3-3.2-4-5.2c-0.9-2-1.6-4.2-1.9-6.6C352.9,327.7,353.9,318.9,353.9,318.9"/>
	</g>
</g>
</svg>
