<svg xmlns="http://www.w3.org/2000/svg" xmlns:xlink="http://www.w3.org/1999/xlink" viewBox="0 0 512 289.12"><defs><style>.a{fill:url(#a);}.b{fill:url(#b);}.c{fill:url(#c);}.d{fill:url(#d);}.e{fill:url(#e);}.f{fill:url(#f);}.g{fill:url(#g);}.h{fill:url(#h);}.i{fill:url(#i);}.j{fill:url(#j);}.k{fill:url(#k);}.l{fill:url(#l);}.m{fill:url(#m);}.n{fill:url(#n);}.o{fill:url(#o);}.p{fill:url(#p);}.q{fill:url(#q);}.r{fill:url(#r);}.s{fill:url(#s);}.t{fill:url(#t);}.u{fill:#e53b11;}</style><linearGradient id="a" x1="239.78" y1="151.79" x2="239.78" y2="279.73" gradientUnits="userSpaceOnUse"><stop offset="0" stop-color="#ef8300"/><stop offset="0.21" stop-color="#ee7a02"/><stop offset="0.56" stop-color="#ea6208"/><stop offset="1" stop-color="#e53b11"/><stop offset="1" stop-color="#e53b11"/></linearGradient><linearGradient id="b" x1="211.85" y1="105.77" x2="211.85" y2="328.11" xlink:href="#a"/><linearGradient id="c" x1="190.44" y1="105.77" x2="190.44" y2="328.11" xlink:href="#a"/><linearGradient id="d" x1="239.78" y1="0.18" x2="239.78" y2="175.16" xlink:href="#a"/><linearGradient id="e" x1="239.78" y1="146.15" x2="239.78" y2="285.38" xlink:href="#a"/><linearGradient id="f" x1="152.63" y1="-0.14" x2="152.63" y2="222.35" xlink:href="#a"/><linearGradient id="g" x1="148.11" y1="105.76" x2="148.11" y2="328.11" xlink:href="#a"/><linearGradient id="h" x1="174.17" y1="0.05" x2="174.17" y2="222.35" xlink:href="#a"/><linearGradient id="i" x1="169.19" y1="105.77" x2="169.19" y2="328.11" xlink:href="#a"/><linearGradient id="j" x1="65.42" y1="105.76" x2="65.42" y2="328.11" xlink:href="#a"/><linearGradient id="k" x1="233.43" y1="105.77" x2="233.43" y2="328.11" xlink:href="#a"/><linearGradient id="l" x1="85.85" y1="105.77" x2="85.85" y2="328.11" xlink:href="#a"/><linearGradient id="m" x1="106.43" y1="105.76" x2="106.43" y2="328.11" xlink:href="#a"/><linearGradient id="n" x1="126.87" y1="105.76" x2="126.87" y2="328.11" xlink:href="#a"/><linearGradient id="o" x1="89" y1="176.72" x2="89" y2="259.51" xlink:href="#a"/><linearGradient id="p" x1="254.91" y1="105.77" x2="254.91" y2="328.11" xlink:href="#a"/><linearGradient id="q" x1="6.14" y1="105.77" x2="6.14" y2="328.11" xlink:href="#a"/><linearGradient id="r" x1="25.07" y1="105.76" x2="25.07" y2="328.11" xlink:href="#a"/><linearGradient id="s" x1="45.16" y1="105.77" x2="45.16" y2="328.11" xlink:href="#a"/><linearGradient id="t" x1="389.83" y1="105.77" x2="389.83" y2="327.8" gradientUnits="userSpaceOnUse"><stop offset="0" stop-color="#f29100"/><stop offset="0" stop-color="#f08800"/><stop offset="0" stop-color="#ef8300"/><stop offset="0.22" stop-color="#ee7a02"/><stop offset="0.57" stop-color="#ea6208"/><stop offset="1" stop-color="#e53b11"/></linearGradient></defs><title>Naamloos-1</title><polygon class="a" points="239.78 215.77 239.78 215.76 239.78 215.78 239.78 215.77"/><path class="b" d="M220.78,269.28l-3-109.32a6.06,6.06,0,0,0-12.12,0l-2.71,109.3,2.71,52.59a6.06,6.06,0,0,0,12.12,0v0Z" transform="translate(0 -105.77)"/><path class="c" d="M199.21,269.27l-3.34-113.45a5.62,5.62,0,0,0-11.25,0l-3,113.44,3,52.93a5.62,5.62,0,0,0,11.25,0v0Z" transform="translate(0 -105.77)"/><polygon class="d" points="239.78 215.75 239.78 215.74 239.78 215.74 239.78 215.76 239.78 215.75"/><polygon class="e" points="239.78 215.76 239.78 215.77 239.78 215.78 239.78 215.76"/><polygon class="f" points="152.63 217.24 152.63 217.24 152.63 217.27 152.63 217.24"/><path class="g" d="M152.63,156.63a4.75,4.75,0,0,0-9.5,0l-3.48,112.62L143.13,323a4.75,4.75,0,0,0,9.5,0l3.93-53.75Z" transform="translate(0 -105.77)"/><polygon class="h" points="174.17 216.91 174.17 216.91 174.17 216.94 174.17 216.91"/><path class="i" d="M174.17,152.84a5.19,5.19,0,0,0-10.37,0l-3.23,116.41,3.23,53.44a5.19,5.19,0,0,0,10.37,0l3.64-53.41Z" transform="translate(0 -105.77)"/><path class="j" d="M65.12,326.38a3.09,3.09,0,0,0,3-2.95l5.13-54.23-5.13-56.06a3,3,0,0,0-6,0L57.6,269.21l4.52,54.23A3.08,3.08,0,0,0,65.12,326.38Z" transform="translate(0 -105.77)"/><path class="k" d="M242.52,269.29l-2.74-130.08a6.63,6.63,0,0,0-2.91-5.36,6.35,6.35,0,0,0-7.09-.05,6.61,6.61,0,0,0-3,5.42l0,1.23-2.43,128.81c0,0.08,2.45,52.29,2.45,52.29s0,0.15,0,.22a6.55,6.55,0,0,0,6.48,6.21,6.44,6.44,0,0,0,4.55-1.9,6.61,6.61,0,0,0,2-4.57l0.27-5.17Z" transform="translate(0 -105.77)"/><path class="l" d="M89,217.19a3.44,3.44,0,0,0-6.88,0l-4.26,52,4.26,54.68a3.44,3.44,0,0,0,6.88,0l4.83-54.67Z" transform="translate(0 -105.77)"/><path class="m" d="M106.17,180.8a4,4,0,0,0-3.88,3.84l-4,84.6,4,54.67a3.88,3.88,0,0,0,7.75,0v0l4.53-54.68L110,184.63A4,4,0,0,0,106.17,180.8Z" transform="translate(0 -105.77)"/><path class="n" d="M130.94,323.84v0l4.24-54.34-4.23-103.95a4.31,4.31,0,0,0-8.63,0l-3.74,103.95,3.75,54.33A4.31,4.31,0,0,0,130.94,323.84Z" transform="translate(0 -105.77)"/><polygon class="o" points="89 218.12 89 218.12 89 218.13 89 218.12"/><path class="p" d="M258.32,121.52a6.8,6.8,0,0,0-7.9.59,7,7,0,0,0-2.56,5.33v0.71L245,269.3l1.44,26.09,1.4,25.39a6.93,6.93,0,0,0,13.87-.05v0.06h0l3.09-51.49h0l-3.09-141.88A7,7,0,0,0,258.32,121.52Z" transform="translate(0 -105.77)"/><path class="q" d="M5.8,299.14a2.15,2.15,0,0,0,2-2l4.43-28L7.85,240.75a2.15,2.15,0,0,0-2-2,2.12,2.12,0,0,0-2.05,2L0,269.19l3.74,28A2.12,2.12,0,0,0,5.8,299.14Z" transform="translate(0 -105.77)"/><path class="r" d="M24.73,316.23a2.22,2.22,0,0,0,2.12-2.06l5.73-45-5.73-46a2.13,2.13,0,0,0-4.26,0l-5,46,5,45A2.22,2.22,0,0,0,24.73,316.23Z" transform="translate(0 -105.77)"/><path class="s" d="M44.84,324.27a2.65,2.65,0,0,0,2.56-2.51l5.43-52.57-5.43-54.56a2.66,2.66,0,0,0-2.57-2.51,2.63,2.63,0,0,0-2.57,2.51L37.5,269.2l4.78,52.56A2.63,2.63,0,0,0,44.84,324.27Z" transform="translate(0 -105.77)"/><path class="t" d="M449,202.15A62.93,62.93,0,0,0,424.67,207,111.13,111.13,0,0,0,314,105.77a112.55,112.55,0,0,0-40.29,7.53c-4.75,1.84-6,3.73-6.06,7.4V320.57a7.41,7.41,0,0,0,6.8,7.23c0.16,0,174.56,0,174.56,0A62.82,62.82,0,1,0,449,202.15Z" transform="translate(0 -105.77)"/><path class="u" d="M50.28,365.69C42.89,364,40.9,363,40.9,360.1c0-2.06,1.66-4.19,6.65-4.19,4.26,0,7.59,1.74,10.58,4.79l6.72-6.52a22.28,22.28,0,0,0-17-7.32c-9.18,0-16.63,5.19-16.63,13.64,0,9.17,6,11.9,14.57,13.89,8.78,2,10.38,3.34,10.38,6.33,0,3.53-2.6,5.06-8.12,5.06a15.08,15.08,0,0,1-11.91-5.33l-6.72,6c3.53,5.19,10.31,8.45,18.09,8.45,12.7,0,18.29-6,18.29-14.83C65.84,369.94,57.66,367.42,50.28,365.69Zm42.85-18.82c-12.7,0-20.22,9.84-20.22,24s7.52,24,20.22,24,20.22-9.83,20.22-24S105.83,346.87,93.13,346.87Zm0,38.78c-7.52,0-10.65-6.45-10.65-14.76s3.13-14.77,10.65-14.77,10.64,6.45,10.64,14.77S100.64,385.64,93.13,385.64Zm57.8-11.9c0,7.45-3.66,12-9.57,12s-9.51-4.73-9.51-12.17v-26h-9.31v26.15c0,13.57,7.59,21.15,18.83,21.15,11.84,0,18.88-7.79,18.88-21.28v-26h-9.31v26.15Zm49.49-6.45c0,2.59.13,8.45,0.13,10.18-0.6-1.2-2.13-3.53-3.26-5.26l-16.5-24.61h-8.91v46.57h9.18V373.67c0-2.59-.14-8.45-0.14-10.18,0.6,1.2,2.13,3.52,3.26,5.26l17.1,25.41h8.32V347.59h-9.18v19.69Zm35.71-19.69H221.57v46.57h13.9c12,0,23.82-6.92,23.82-23.28C259.29,353.85,249.44,347.59,236.13,347.59Zm-0.66,37.52h-4.59V356.65h4.93c9.84,0,13.9,4.71,13.9,14.23C249.71,379.4,245.25,385.12,235.47,385.12Zm52.62-29a8.85,8.85,0,0,1,8.52,5.05l8.64-4c-2.92-6.05-8.24-10.31-17-10.31-12.17,0-20.68,9.84-20.68,24,0,14.7,8.17,24,20.35,24,8.45,0,14-3.92,17.23-10.51l-7.85-4.66c-2.46,4.13-4.92,5.93-9.11,5.93-7,0-11-6.39-11-14.76C277.1,362.24,281.11,356.12,288.08,356.12Zm34.54-8.52h-9.32v46.57h28V385H322.62V347.59Zm43.21-.73c-12.71,0-20.22,9.84-20.22,24s7.51,24,20.22,24,20.22-9.83,20.22-24S378.53,346.87,365.83,346.87Zm0,38.78c-7.52,0-10.65-6.45-10.65-14.76s3.13-14.77,10.65-14.77,10.63,6.45,10.63,14.77S373.34,385.64,365.83,385.64Zm57.8-11.9c0,7.45-3.65,12-9.57,12s-9.52-4.73-9.52-12.17v-26h-9.31v26.15c0,13.57,7.59,21.15,18.83,21.15,11.84,0,18.89-7.79,18.89-21.28v-26h-9.32v26.15Zm35.53-26.15H444.59v46.57h13.89c12,0,23.82-6.92,23.82-23.28C482.3,353.85,472.47,347.59,459.16,347.59Zm-0.68,37.52H453.9V356.65h4.92c9.83,0,13.89,4.71,13.89,14.23C472.72,379.4,468.27,385.12,458.48,385.12Z" transform="translate(0 -105.77)"/></svg>